<?xml version="1.0" encoding="utf-8"?>
<!-- Generator: Adobe Illustrator 24.2.3, SVG Export Plug-In . SVG Version: 6.00 Build 0)  -->
<svg version="1.1" id="Layer_1" xmlns="http://www.w3.org/2000/svg" xmlns:xlink="http://www.w3.org/1999/xlink" x="0px" y="0px"
	 viewBox="0 0 24 24" style="enable-background:new 0 0 24 24;" xml:space="preserve">
<style type="text/css">
	.st0{fill:#FFFFFF;}
</style>
<path class="st0" d="M10,8.3c-0.6-0.6-0.5-1.5,0-2.1l6-5.8C16.2,0.1,16.6,0,17,0s0.8,0.1,1,0.4L10,8.3z M0.2,23
	C0.1,23.1,0,23.2,0,23.4C0,23.7,0.3,24,0.6,24c0.2,0,0.3-0.1,0.4-0.2l1-1L1.2,22L0.2,23z M8.6,11.7L5.2,15c-1.8,1.8-2.8,3.5-3.6,5.9
	l1.5,1.6c2.4-0.8,4.2-1.7,6-3.5l3.4-3.3L8.6,11.7z M18.6,1.5L9.8,10l4.4,4.6L23,6.1c0.6-0.6,1-1.5,1-2.3C24,1,20.6-0.5,18.6,1.5z"/>
</svg>
